<svg xmlns="http://www.w3.org/2000/svg" width="100" height="100" viewBox="0 0 100 100" class="looka-1j8o68f">
<g id="SvgjsG2313" featurekey="T16ghp-0" transform="matrix(1.5909090909090908,0,0,1.5909090909090908,-3.1818181818181817,-3.1818181818181817)" fill="#ff5050">
<g xmlns="http://www.w3.org/2000/svg" class="st0" style="display: none;">
<g class="st1" style="display: inline;">
<rect x="2" y="2" class="st2" width="60" height="60" style="fill: none; stroke: #ff5050; stroke-width: 0.1; stroke-miterlimit: 10;"></rect>
<line class="st2" x1="32" y1="2" x2="32" y2="62" style="fill: none; stroke: #ff5050; stroke-width: 0.1; stroke-miterlimit: 10;"></line>
<line class="st2" x1="62" y1="32" x2="2" y2="32" style="fill: none; stroke: #ff5050; stroke-width: 0.1; stroke-miterlimit: 10;"></line>
<line class="st2" x1="2" y1="2" x2="62" y2="62" style="fill: none; stroke: #ff5050; stroke-width: 0.1; stroke-miterlimit: 10;"></line>
<rect x="10" y="10" class="st2" width="44" height="44" style="fill: none; stroke: #ff5050; stroke-width: 0.1; stroke-miterlimit: 10;"></rect>
<line class="st2" x1="62" y1="2" x2="2" y2="62" style="fill: none; stroke: #ff5050; stroke-width: 0.1; stroke-miterlimit: 10;"></line>
<line class="st2" x1="2" y1="32" x2="32" y2="2" style="fill: none; stroke: #ff5050; stroke-width: 0.1; stroke-miterlimit: 10;"></line>
<line class="st2" x1="32" y1="2" x2="62" y2="32" style="fill: none; stroke: #ff5050; stroke-width: 0.1; stroke-miterlimit: 10;"></line>
<line class="st2" x1="62" y1="32" x2="32" y2="62" style="fill: none; stroke: #ff5050; stroke-width: 0.1; stroke-miterlimit: 10;"></line>
<line class="st2" x1="32" y1="62" x2="2" y2="32" style="fill: none; stroke: #ff5050; stroke-width: 0.1; stroke-miterlimit: 10;"></line>
<circle class="st2" cx="32" cy="32" r="21" style="fill: none; stroke: #ff5050; stroke-width: 0.1; stroke-miterlimit: 10;"></circle>
</g>
</g>
<path xmlns="http://www.w3.org/2000/svg" d="M22,19v2.2L34.1,22C34,21.7,34,21.4,34,21c0-3.9,3.1-7,7-7s7,3.1,7,7c0,0.7-0.1,1.4-0.3,2l8.7,0.6L60,23v-4l-4.3-0.7  c-0.1-0.8-0.4-1.6-0.6-2.3l3.3-2.7l-2-3.5l-4,1.5c-0.5-0.6-1.1-1.2-1.7-1.7l1.5-4l-3.5-2L46,6.9c-0.7-0.3-1.5-0.5-2.3-0.6L43,2h-4  l-0.7,4.3c-0.8,0.1-1.6,0.4-2.3,0.6l-2.7-3.3l-3.5,2l1.5,4c-0.6,0.5-1.2,1.1-1.7,1.7l-4-1.5l-2,3.5l3.3,2.7  c-0.3,0.7-0.5,1.5-0.6,2.3L22,19z"></path>
<path xmlns="http://www.w3.org/2000/svg" d="M56,48H27.5c-0.9,0-1.7-0.6-1.9-1.4L19,23l43,3L56,48z"></path>
<path xmlns="http://www.w3.org/2000/svg" d="M58,51c0,0.6-0.4,1-1,1H27c-2.2,0-4.2-1.5-4.8-3.6L14,19.9c-0.5-1.7-2-2.9-3.8-2.9H3c-0.6,0-1-0.4-1-1l0,0c0-0.6,0.4-1,1-1  h7.2c2.7,0,5,1.8,5.8,4.3l8.2,28.5c0.4,1.3,1.6,2.2,2.9,2.2h30C57.6,50,58,50.4,58,51L58,51z"></path>
<circle xmlns="http://www.w3.org/2000/svg" cx="27" cy="58" r="4"></circle>
<circle xmlns="http://www.w3.org/2000/svg" cx="54" cy="58" r="4"></circle>
</g>

</svg>